<svg xmlns="http://www.w3.org/2000/svg" viewBox="0 0 800 600" width="800" height="600">
  <!-- Background Elements -->
  <circle cx="400" cy="300" r="250" fill="#ffffff" opacity="0.1"/>
  <circle cx="400" cy="300" r="200" fill="#ffffff" opacity="0.15"/>
  <circle cx="400" cy="300" r="150" fill="#ffffff" opacity="0.2"/>
  
  <!-- Person with Idea -->
  <g transform="translate(300, 250)">
    <!-- Head -->
    <circle cx="0" cy="0" r="40" fill="#ffffff"/>
    
    <!-- Body -->
    <path d="M-20,40 C-20,70 20,70 20,40" stroke="#ffffff" stroke-width="5" fill="none"/>
    
    <!-- Arms -->
    <path d="M-20,50 C-50,30 -60,70 -30,90" stroke="#ffffff" stroke-width="5" fill="none"/>
    <path d="M20,50 C50,20 70,40 60,80" stroke="#ffffff" stroke-width="5" fill="none"/>
    
    <!-- Thought Bubble -->
    <g transform="translate(70, -50)">
      <circle cx="0" cy="0" r="20" fill="#ffffff"/>
      <circle cx="30" cy="-15" r="15" fill="#ffffff"/>
      <circle cx="50" cy="-30" r="10" fill="#ffffff"/>
      <circle cx="65" cy="-40" r="5" fill="#ffffff"/>
    </g>
  </g>
  
  <!-- Suggestion Box -->
  <g transform="translate(500, 320)">
    <rect x="-60" y="-40" width="120" height="80" rx="10" fill="#ffffff"/>
    <rect x="-50" y="-30" width="100" height="10" rx="5" fill="#FF750F" opacity="0.7"/>
    <rect x="-50" y="-10" width="80" height="10" rx="5" fill="#FF750F" opacity="0.7"/>
    <rect x="-50" y="10" width="60" height="10" rx="5" fill="#FF750F" opacity="0.7"/>
    
    <!-- Slot -->
    <rect x="-40" y="-60" width="80" height="10" rx="5" fill="#ffffff"/>
    <path d="M-40,-60 L-40,-40 L40,-40 L40,-60 Z" fill="#FF750F" opacity="0.3"/>
  </g>
  
  <!-- Connection Lines -->
  <path d="M370,200 C420,180 450,200 440,280" stroke="#ffffff" stroke-width="3" fill="none" stroke-dasharray="5,5"/>
  
  <!-- Small Decorative Elements -->
  <circle cx="200" cy="150" r="10" fill="#ffffff" opacity="0.6"/>
  <circle cx="600" cy="200" r="15" fill="#ffffff" opacity="0.6"/>
  <circle cx="250" cy="450" r="12" fill="#ffffff" opacity="0.6"/>
  <circle cx="550" cy="450" r="8" fill="#ffffff" opacity="0.6"/>
  
  <!-- Abstract Shapes -->
  <path d="M150,300 L180,320 L160,350 L130,330 Z" fill="#ffffff" opacity="0.4"/>
  <path d="M650,250 L680,270 L670,300 L640,280 Z" fill="#ffffff" opacity="0.4"/>
</svg>